<svg width="44" height="44" viewBox="0 0 44 44" fill="none" xmlns="http://www.w3.org/2000/svg">
<path d="M16.8143 25.0029C16.8143 24.8477 16.8936 24.7081 17.0204 24.553L23.5711 16.499C24.0626 15.8783 24.8875 16.2973 24.602 17.0576L22.4449 22.7218H26.4894C26.7908 22.7218 27.0604 22.9545 27.0604 23.2339C27.0604 23.3891 26.9811 23.5598 26.8383 23.6994L20.3037 31.7377C19.812 32.3585 18.9713 31.9396 19.2569 31.1947L21.4298 25.515H17.3694C17.0681 25.515 16.8143 25.2978 16.8143 25.0029ZM8.28111 36.2691H35.7204C39.0513 36.2691 40.7008 34.6708 40.7008 31.474V16.4679C40.7008 13.2712 39.0513 11.6728 35.7204 11.6728H33.5316V9.59341C33.5316 8.41403 32.8338 7.7002 31.6125 7.7002H26.9335C25.7281 7.7002 25.0302 8.41403 25.0302 9.59341V11.6728H18.9872V9.59341C18.9872 8.41403 18.2893 7.7002 17.0681 7.7002H12.3891C11.1678 7.7002 10.4858 8.41403 10.4858 9.59341V11.6728H8.28111C4.96618 11.6728 3.30078 13.2712 3.30078 16.4679V31.474C3.30078 34.6708 4.96618 36.2691 8.28111 36.2691Z" stroke="#5C94C5" stroke-width="2"/>
</svg>
