<svg width="44" height="44" viewBox="0 0 44 44" fill="none" xmlns="http://www.w3.org/2000/svg">
<path d="M12.3739 24.75V23.75H12.3739L12.3739 24.75ZM9.62393 41.25L9.62391 42.25H9.62393V41.25ZM1.28115 36.4277L0.414823 36.9272L0.414913 36.9274L1.28115 36.4277ZM1.30557 35.0146L0.45663 34.4862L0.456537 34.4863L1.30557 35.0146ZM2.56338 34.3691L2.49741 35.367L2.49745 35.367L2.56338 34.3691ZM2.74893 34.375L2.74887 35.375H2.74893V34.375ZM18.2646 17.2842L18.6448 16.3593C18.2263 16.1872 17.7444 16.3176 17.4697 16.6773L18.2646 17.2842ZM26.7138 25.7334L27.3206 26.5282C27.6803 26.2536 27.8108 25.7716 27.6386 25.353L26.7138 25.7334ZM22.5478 28.4619L23.0331 29.3362L23.0334 29.3361L22.5478 28.4619ZM21.6259 28.9736L20.6644 29.2486C20.7483 29.5419 20.9614 29.7808 21.2432 29.8975C21.5249 30.0142 21.8446 29.996 22.1112 29.848L21.6259 28.9736ZM15.0243 22.3721L14.1506 21.8856C14.0021 22.1523 13.9836 22.4722 14.1002 22.7543C14.2169 23.0363 14.456 23.2497 14.7494 23.3336L15.0243 22.3721ZM15.537 21.4512L16.4107 21.9376L16.4112 21.9368L15.537 21.4512ZM37.7636 2.75L37.7637 1.75H37.7636V2.75ZM41.2489 6.23633L42.2489 6.23646V6.23633H41.2489ZM40.664 8.16992L41.496 8.72464L41.496 8.72462L40.664 8.16992ZM34.456 17.4814L33.6239 16.9267L33.6239 16.9267L34.456 17.4814ZM28.328 24.4229L27.4168 24.8348C27.5468 25.1223 27.8048 25.3316 28.1129 25.3994C28.421 25.4673 28.743 25.3858 28.9818 25.1796L28.328 24.4229ZM19.5761 15.6709L18.8194 15.0171C18.6131 15.2558 18.5316 15.5779 18.5995 15.886C18.6673 16.1941 18.8766 16.4521 19.1641 16.5821L19.5761 15.6709ZM26.5185 9.54297L25.9638 8.71089L25.9638 8.71092L26.5185 9.54297ZM35.83 3.33594L36.3846 4.16801L36.3847 4.168L35.83 3.33594ZM12.3739 24.75V25.75C15.6186 25.75 18.2489 28.3803 18.2489 31.625H19.2489H20.2489C20.2489 27.2757 16.7232 23.75 12.3739 23.75V24.75ZM19.2489 31.625H18.2489C18.2489 36.3885 14.3874 40.25 9.62393 40.25V41.25V42.25C15.492 42.25 20.2489 37.493 20.2489 31.625H19.2489ZM9.62393 41.25L9.62394 40.25C6.42735 40.25 3.63688 38.5106 2.14739 35.9281L1.28115 36.4277L0.414913 36.9274C2.24664 40.1032 5.68314 42.2499 9.62391 42.25L9.62393 41.25ZM1.28115 36.4277L2.14748 35.9283C2.07889 35.8093 2.08098 35.6613 2.1546 35.543L1.30557 35.0146L0.456537 34.4863C-0.00581229 35.2293 -0.0232573 36.1674 0.414823 36.9272L1.28115 36.4277ZM1.30557 35.0146L2.15451 35.5431C2.22784 35.4253 2.35972 35.3579 2.49741 35.367L2.56338 34.3691L2.62935 33.3713C1.75448 33.3135 0.919591 33.7425 0.45663 34.4862L1.30557 35.0146ZM2.56338 34.3691L2.49745 35.367C2.58356 35.3727 2.66761 35.375 2.74887 35.375L2.74893 34.375L2.74898 33.375C2.7059 33.375 2.66616 33.3738 2.62931 33.3713L2.56338 34.3691ZM2.74893 34.375V35.375C4.82 35.375 6.49893 33.6961 6.49893 31.625H5.49893H4.49893C4.49893 32.5915 3.71543 33.375 2.74893 33.375V34.375ZM5.49893 31.625H6.49893C6.49893 28.3804 9.12927 25.7501 12.3739 25.75L12.3739 24.75L12.3739 23.75C8.02473 23.7501 4.49893 27.2757 4.49893 31.625H5.49893ZM18.2646 17.2842L17.8843 18.209C21.4596 19.6792 24.3184 22.5384 25.7889 26.1138L26.7138 25.7334L27.6386 25.353C25.965 21.284 22.7142 18.0326 18.6448 16.3593L18.2646 17.2842ZM26.7138 25.7334L26.107 24.9385C24.8275 25.9153 23.4767 26.8019 22.0621 27.5878L22.5478 28.4619L23.0334 29.3361C24.5337 28.5026 25.9654 27.5628 27.3206 26.5282L26.7138 25.7334ZM22.5478 28.4619L22.0624 27.5876L21.1406 28.0993L21.6259 28.9736L22.1112 29.848L23.0331 29.3362L22.5478 28.4619ZM21.6259 28.9736L22.5873 28.6986C21.5817 25.1829 18.8154 22.4158 15.2992 21.4106L15.0243 22.3721L14.7494 23.3336C17.6013 24.1489 19.8486 26.3967 20.6644 29.2486L21.6259 28.9736ZM15.0243 22.3721L15.898 22.8585L16.4107 21.9376L15.537 21.4512L14.6633 20.9647L14.1506 21.8856L15.0243 22.3721ZM15.537 21.4512L16.4112 21.9368C17.1973 20.5217 18.0829 19.17 19.0594 17.891L18.2646 17.2842L17.4697 16.6773C16.4347 18.033 15.4961 19.4657 14.6629 20.9655L15.537 21.4512ZM37.7636 2.75L37.7635 3.75C39.136 3.75014 40.2489 4.86328 40.2489 6.23633H41.2489H42.2489C42.2489 3.75923 40.2412 1.75026 37.7637 1.75L37.7636 2.75ZM41.2489 6.23633L40.2489 6.2362C40.2489 6.72747 40.1038 7.20747 39.8319 7.61522L40.664 8.16992L41.496 8.72462C41.9875 7.98739 42.2488 7.12127 42.2489 6.23646L41.2489 6.23633ZM40.664 8.16992L39.8319 7.6152L33.6239 16.9267L34.456 17.4814L35.288 18.0362L41.496 8.72464L40.664 8.16992ZM34.456 17.4814L33.6239 16.9267C31.9483 19.4401 29.9446 21.7048 27.6743 23.6661L28.328 24.4229L28.9818 25.1796C31.3879 23.1009 33.5118 20.7005 35.288 18.0362L34.456 17.4814ZM28.328 24.4229L29.2392 24.0109C27.3865 19.9133 24.0856 16.6123 19.9881 14.7597L19.5761 15.6709L19.1641 16.5821C22.8185 18.2344 25.7645 21.1804 27.4168 24.8348L28.328 24.4229ZM19.5761 15.6709L20.3328 16.3247C22.2944 14.0544 24.5596 12.0507 27.0732 10.375L26.5185 9.54297L25.9638 8.71092C23.2994 10.4872 20.8984 12.6109 18.8194 15.0171L19.5761 15.6709ZM26.5185 9.54297L27.0731 10.375L36.3846 4.16801L35.83 3.33594L35.2753 2.50386L25.9638 8.71089L26.5185 9.54297ZM35.83 3.33594L36.3847 4.168C36.7934 3.8955 37.2733 3.75 37.7636 3.75V2.75V1.75C36.8775 1.75 36.0118 2.01293 35.2753 2.50388L35.83 3.33594Z" fill="#5C94C5"/>
</svg>
