<svg width="42" height="42" viewBox="0 0 42 42" fill="none" xmlns="http://www.w3.org/2000/svg">
<path d="M28.6934 1C29.2902 1 29.5991 1.15935 29.7666 1.33301C29.9399 1.51273 30.1191 1.87077 30.1191 2.58398V4.28711H32.7715C34.0019 4.28711 34.6888 4.57985 35.085 4.98926C35.4878 5.40566 35.7793 6.137 35.7793 7.43555V34.418C35.7793 35.4526 35.6522 35.9997 35.4111 36.3887C35.2011 36.7273 34.8324 37.0609 34.0781 37.4551L33.7314 37.6279L33.7227 37.6318C29.9481 39.4691 24.5869 40.2031 19.7285 40.2031C14.8734 40.2031 10.8732 39.3628 8.01855 38.1318C7.51497 37.8837 7.30919 37.6541 7.19922 37.4424C7.07309 37.1995 7 36.8434 7 36.2109V6.04688C7 5.4002 7.19933 4.97278 7.47656 4.70508C7.75729 4.43403 8.23223 4.2168 8.98828 4.2168H10.3945C16.7539 4.2168 21.7135 3.08033 27.0859 1.31934L27.0869 1.32031C27.7902 1.09135 28.3114 1 28.6934 1ZM30.1191 30.6211C30.1191 31.3263 30.0327 31.7114 29.9219 31.957C29.8202 32.1821 29.6615 32.3725 29.3359 32.6201L29.335 32.6211C26.0801 35.1034 19.896 37.0073 13.1084 37.1973L13.0068 39.1885C15.3381 39.4935 17.4735 39.6191 19.7285 39.6191C24.4874 39.6191 29.5482 38.6133 33.1895 37.0215H33.1904C33.7465 36.7775 34.2811 36.463 34.6094 35.8984C34.9216 35.3614 34.9492 34.7548 34.9492 34.2246V7.43555C34.9492 6.86725 34.8296 6.25164 34.4062 5.77539C33.9619 5.27582 33.3539 5.11719 32.7891 5.11719H30.1191V30.6211ZM25.001 7.01367C24.6182 6.80808 24.1759 6.79949 23.8145 6.93652V6.93555C20.1698 8.27019 16.6161 8.97174 12.623 9.12598H12.6074L12.5908 9.12793C11.763 9.1871 11.2402 9.88957 11.2402 10.5996V16.541C11.2403 16.9253 11.3806 17.3123 11.6904 17.5957C11.9858 17.8658 12.3486 17.9629 12.6621 17.9629C17.0181 17.9629 21.4575 17.1912 24.8701 15.7969L24.8691 15.7959C25.4809 15.5604 25.7383 14.9726 25.7383 14.502V8.29688C25.7383 7.74767 25.4694 7.26538 25.001 7.01367Z" stroke="#5C94C5" stroke-width="2"/>
</svg>
