<svg width="48" height="48" viewBox="0 0 48 48" fill="none" xmlns="http://www.w3.org/2000/svg">
<path d="M33 31.2271V32.4683C33 37.277 28.9828 41.2271 24 41.2271C19.0172 41.2271 15 37.2772 15 32.4683V31.2271H33ZM24 32.3169C21.8246 32.3169 20.0176 34.0453 20.0176 36.2271C20.0176 38.4069 21.8265 40.1372 24 40.1372C26.1735 40.1372 27.9824 38.4069 27.9824 36.2271C27.9824 34.0472 26.1735 32.3169 24 32.3169Z" stroke="#5C94C5" stroke-width="2"/>
<path d="M10.9463 31.2271C9.80868 32.9449 8.74811 35.3995 8.46289 38.7476L8.37012 39.8315H9.50391C9.87039 39.8315 10.1846 40.1347 10.1846 40.5298C10.1844 40.9248 9.87031 41.2271 9.50391 41.2271H5.68066C5.31426 41.2271 5.00013 40.9248 5 40.5298C5 40.1347 5.31418 39.8315 5.68066 39.8315H7.01465L7.08105 38.9028C7.31669 35.6046 8.25602 33.0893 9.33984 31.2271H10.9463Z" stroke="#5C94C5" stroke-width="2"/>
<path d="M38.668 31.2329C39.746 33.0941 40.6827 35.6071 40.918 38.9028L40.9834 39.8315H42.3203C42.6861 39.8317 43 40.1339 43 40.5308C42.9998 40.9249 42.6866 41.2269 42.3203 41.2271H38.4971C38.1307 41.2271 37.8166 40.925 37.8164 40.5308C37.8164 40.1363 38.1305 39.8335 38.4971 39.8335H39.6289L39.5361 38.7485C39.2509 35.4003 38.1869 32.9486 37.0508 31.2329H38.668Z" stroke="#5C94C5" stroke-width="2"/>
<path d="M43.3336 11.1412H38.1581V10.9003C38.1581 9.97778 37.4105 9.22705 36.4918 9.22705C35.5675 9.22705 34.8255 9.97778 34.8255 10.9003V11.1412H29.6461C28.7255 11.1412 27.9798 11.8901 27.9798 12.8145C27.9798 13.7389 28.7255 14.4878 29.6461 14.4878H34.8255V18.6673L13.1783 18.6692V14.4897H18.3538C19.2744 14.4897 20.0201 13.7408 20.0201 12.8164C20.0201 11.892 19.2744 11.1431 18.3538 11.1431L13.1783 11.1412V10.9003C13.1783 9.97778 12.4307 9.22705 11.512 9.22705C10.5877 9.22705 9.84565 9.97778 9.84565 10.9003V11.1412H4.6663C3.74574 11.1412 3 11.8901 3 12.8145C3 13.7389 3.74574 14.4878 4.6663 14.4878H9.84565V18.6673L8.47319 18.6692C5.84914 18.6692 3.71418 20.8131 3.71418 23.4481C3.71418 26.0831 5.84914 28.2271 8.47319 28.2271H38.6938C41.3178 28.2271 43.4528 26.0831 43.4528 23.4481C43.4528 20.8131 41.3178 18.6692 38.6938 18.6692H38.1582V14.4897H43.3337C44.2543 14.4897 45 13.7408 45 12.8164C45 11.8901 44.2542 11.1412 43.3336 11.1412Z" stroke="#5C94C5" stroke-width="2"/>
</svg>
