<svg width="80" height="80" viewBox="0 0 80 80" fill="none" xmlns="http://www.w3.org/2000/svg">
<circle cx="40" cy="40" r="39" stroke="#F8931E" stroke-width="2"/>
<path d="M43.9827 35.2991L40.6063 27.9792C40.3681 27.4627 39.6339 27.4627 39.3956 27.9792L36.0193 35.2991C35.9222 35.5097 35.7226 35.6546 35.4924 35.6819L27.4874 36.631C26.9225 36.698 26.6956 37.3963 27.1133 37.7825L33.0316 43.2556C33.2018 43.413 33.278 43.6475 33.2328 43.875L31.6618 51.7814C31.5509 52.3394 32.1449 52.7709 32.6413 52.4931L39.6753 48.5557C39.8777 48.4425 40.1243 48.4425 40.3266 48.5557L47.3606 52.4931C47.857 52.7709 48.451 52.3394 48.3401 51.7814L46.7691 43.875C46.7239 43.6475 46.8002 43.413 46.9704 43.2556L52.8887 37.7825C53.3063 37.3963 53.0794 36.698 52.5145 36.631L44.5096 35.6819C44.2793 35.6546 44.0798 35.5097 43.9827 35.2991Z" stroke="#F8931E" stroke-width="2" stroke-linecap="round" stroke-linejoin="round"/>
</svg>
