<?xml version="1.0" encoding="UTF-8"?>
<svg xmlns="http://www.w3.org/2000/svg" xmlns:xlink="http://www.w3.org/1999/xlink" width="120px" height="40px" viewBox="0 0 120 40" version="1.1">
    <g>
        <path style=" stroke:none;fill-rule:nonzero;fill:rgb(29.411766%,45.882353%,64.313728%);fill-opacity:1;" d="M 105.089844 9.453125 L 102.425781 9.453125 L 93.695312 32.605469 L 96.363281 32.605469 Z M 105.089844 9.453125 "/>
        <path style=" stroke:none;fill-rule:nonzero;fill:rgb(29.411766%,45.882353%,64.313728%);fill-opacity:1;" d="M 106.304688 29.332031 L 117.453125 21.9375 L 106.304688 13.453125 L 106.304688 10.183594 L 119.636719 20.605469 L 119.636719 23.394531 L 106.304688 32.605469 Z M 106.304688 29.332031 "/>
        <path style=" stroke:none;fill-rule:nonzero;fill:rgb(29.411766%,45.882353%,64.313728%);fill-opacity:1;" d="M 48.847656 0.96875 L 69.9375 0.96875 C 71.394531 0.96875 72.484375 2.183594 72.484375 3.515625 L 72.484375 36.363281 C 72.484375 37.816406 71.394531 38.910156 69.9375 38.910156 L 48.847656 38.910156 C 47.394531 38.910156 46.304688 37.816406 46.304688 36.363281 L 46.304688 3.515625 C 46.304688 2.183594 47.515625 0.96875 48.847656 0.96875 Z M 48.847656 0.96875 "/>
        <path style=" stroke:none;fill-rule:nonzero;fill:rgb(35.686275%,35.686275%,35.686275%);fill-opacity:1;" d="M 3.03125 32.726562 L 3.03125 9.574219 L 0.242188 9.574219 L 0.242188 32.726562 Z M 80.847656 22.183594 L 86.667969 22.183594 C 85.9375 19.757812 85.210938 16.96875 83.757812 12 C 82.425781 16.605469 81.453125 19.515625 80.847656 22.183594 Z M 87.273438 24.847656 L 80 24.847656 L 80 24.726562 C 79.394531 26.910156 78.667969 29.332031 77.816406 32.605469 L 74.546875 32.605469 L 81.453125 9.453125 L 85.9375 9.453125 L 92.847656 32.726562 L 89.453125 32.726562 C 88.484375 29.089844 87.878906 26.910156 87.273438 24.847656 Z M 25.210938 32.726562 L 25.210938 9.574219 L 22.183594 9.574219 C 22.183594 16.121094 21.9375 23.03125 22.546875 29.574219 L 13.453125 9.574219 L 8.726562 9.574219 L 8.726562 32.726562 L 11.757812 32.726562 C 11.757812 26.0625 12 19.394531 11.394531 12.847656 L 20.363281 32.726562 Z M 42.789062 12 L 43.394531 9.574219 L 28.484375 9.574219 L 28 12 L 34.183594 12 L 34.183594 32.605469 L 36.847656 32.605469 L 36.847656 12 Z M 42.789062 12 "/>
        <path style=" stroke:none;fill-rule:nonzero;fill:rgb(99.607843%,99.607843%,99.607843%);fill-opacity:1;" d="M 52.484375 32.726562 L 52.484375 9.574219 L 49.574219 9.574219 L 49.574219 32.726562 Z M 70.304688 12 L 70.910156 9.574219 L 55.636719 9.574219 L 55.152344 12 L 61.332031 12 L 61.332031 32.605469 L 64.242188 32.605469 L 64.242188 12 Z M 70.304688 12 "/>
    </g>
</svg>
