<?xml version="1.0" encoding="UTF-8"?>
<svg xmlns="http://www.w3.org/2000/svg" xmlns:xlink="http://www.w3.org/1999/xlink" width="120px" height="44px" viewBox="0 0 119 44" version="1.1">
<g id="surface1">
<path style=" stroke:none;fill-rule:nonzero;fill:rgb(100%,100%,100%);fill-opacity:1;" d="M 100.785156 12.386719 L 98.328125 12.386719 L 90.339844 33.5625 L 92.796875 33.5625 Z M 100.785156 12.386719 "/>
<path style=" stroke:none;fill-rule:nonzero;fill:rgb(100%,100%,100%);fill-opacity:1;" d="M 101.855469 30.523438 L 112.101562 23.78125 L 101.855469 16.105469 L 101.855469 13.066406 L 114.152344 22.648438 L 114.152344 25.167969 L 101.855469 33.605469 Z M 101.855469 30.523438 "/>
<path style=" stroke:none;fill-rule:nonzero;fill:rgb(100%,100%,100%);fill-opacity:1;" d="M 49.328125 4.664062 L 68.632812 4.664062 C 69.914062 4.664062 70.960938 5.71875 70.960938 6.996094 L 70.960938 37.003906 C 70.960938 38.28125 69.914062 39.335938 68.632812 39.335938 L 49.328125 39.335938 C 48.039062 39.335938 46.992188 38.28125 46.992188 37.003906 L 46.992188 6.996094 C 46.992188 5.71875 48.039062 4.664062 49.328125 4.664062 Z M 49.328125 4.664062 "/>
<path style=" stroke:none;fill-rule:evenodd;fill:rgb(100%,100%,100%);fill-opacity:1;" d="M 38.265625 14.773438 L 38.265625 33.628906 L 35.808594 33.628906 L 35.808594 14.773438 L 30.15625 14.773438 L 30.609375 12.507812 L 44.292969 12.507812 L 43.789062 14.773438 Z M 23.238281 33.628906 L 14.953125 15.421875 C 15.457031 21.460938 15.292969 27.566406 15.292969 33.628906 L 12.527344 33.628906 L 12.527344 12.507812 L 16.890625 12.507812 L 25.230469 30.746094 C 24.660156 24.847656 24.925781 18.457031 24.925781 12.507812 L 27.691406 12.507812 L 27.691406 33.628906 Z M 84.5 26.519531 L 77.847656 26.519531 L 77.847656 26.398438 C 77.261719 28.46875 76.65625 30.601562 75.796875 33.628906 L 72.820312 33.628906 L 79.199219 12.507812 L 83.246094 12.507812 L 89.589844 33.628906 L 86.507812 33.628906 C 85.589844 30.359375 85.03125 28.367188 84.5 26.519531 Z M 78.519531 24.023438 L 83.796875 24.023438 C 83.191406 21.867188 82.453125 19.273438 81.164062 14.71875 C 79.972656 18.910156 79.199219 21.613281 78.519531 24.023438 Z M 4.835938 33.628906 L 4.835938 12.507812 L 7.328125 12.507812 L 7.328125 33.628906 Z M 4.835938 33.628906 "/>
<path style=" stroke:none;fill-rule:nonzero;fill:rgb(13.725491%,17.254902%,18.82353%);fill-opacity:1;" d="M 68.953125 14.773438 L 69.460938 12.507812 L 55.554688 12.507812 L 55.101562 14.773438 L 60.757812 14.773438 L 60.757812 33.628906 L 63.445312 33.628906 L 63.445312 14.773438 Z M 52.636719 33.628906 L 52.636719 12.507812 L 49.925781 12.507812 L 49.925781 33.628906 Z M 52.636719 33.628906 "/>
</g>
</svg>
